<svg width="587" height="547" viewBox="0 0 587 547" fill="none" xmlns="http://www.w3.org/2000/svg">
<path d="M338 272.5C338 297.077 318.077 317 293.5 317C268.923 317 249 297.077 249 272.5C249 247.923 268.923 228 293.5 228C318.077 228 338 247.923 338 272.5Z" fill="#EA4E46"/>
<path d="M98.1852 74.0001C102.467 68.9738 108.895 66.2996 115.478 66.806C120.712 67.2086 124.926 71.3371 125.506 76.5541C126.133 82.2003 124.298 87.9026 120.459 92.0904L117.224 95.6189C105.099 108.846 94.1879 123.137 84.6217 138.318L76 152L42.75 220L27.5 254L10.6747 285.781C9.99489 287.065 10.3329 288.652 11.4771 289.547L13.7622 291.336C18.5712 295.099 23.8003 298.292 29.3449 300.852L30.7175 301.485C54.506 312.464 79.3877 320.9 104.949 326.651L106.5 327L146 335.5L184.816 343.616C195.578 345.866 206.086 349.196 216.18 353.555L217.405 354.084C221.111 355.684 224.536 357.87 227.548 360.557C232.11 364.625 228.946 372.163 222.847 371.756L211.5 371C200.184 369.336 189.015 366.792 178.094 363.393L66 328.5L30.5175 312.178C20.8774 307.744 11.8333 302.115 3.59783 295.423C1.33798 293.587 0.0956299 290.779 0.257145 287.871L0.275342 287.544C0.423819 284.871 1.06833 282.25 2.17596 279.813L18 245L33.5 204L46 170.5L58.1289 140.936C66.0152 121.713 76.1516 103.492 88.3261 86.6553L93.5 79.5L98.1852 74.0001Z" fill="#EA4E46"/>
<path d="M370.144 4.03087C376.638 5.22574 382.168 9.45561 385.021 15.4101C387.289 20.1439 385.821 25.858 381.593 28.9685C377.017 32.3349 371.161 33.5962 365.615 32.3656L360.941 31.3287C343.424 27.4418 325.592 25.1374 307.662 24.4434L291.502 23.8179L215.987 29.0226L178.917 32.8157L142.981 34.1351C141.529 34.1884 140.324 35.2745 140.121 36.7132L139.715 39.5862C138.86 45.6327 138.709 51.7579 139.265 57.8392L139.403 59.3447C141.789 85.4357 146.924 111.202 154.724 136.214L155.197 137.732L167.586 176.19L179.965 213.863C183.398 224.308 185.768 235.073 187.04 245.995L187.194 247.32C187.662 251.33 187.481 255.389 186.661 259.341C185.418 265.326 177.308 266.354 174.611 260.869L169.592 250.664C165.375 240.032 161.993 229.088 159.477 217.93L133.648 103.408L130.042 64.518C129.063 53.9522 129.415 43.3052 131.093 32.8274C131.553 29.9523 133.364 27.4722 135.962 26.1584L136.255 26.0104C138.644 24.8027 141.236 24.0501 143.901 23.7909L181.961 20.0885L225.219 13.0119L260.48 7.08718L292.148 2.80901C312.739 0.0273325 333.586 -0.304531 354.255 1.82036L363.039 2.72339L370.144 4.03087Z" fill="#EA4E46"/>
<path d="M568.389 203.661C570.601 209.882 569.703 216.786 565.973 222.234C563.007 226.565 557.325 228.151 552.517 226.044C547.313 223.765 543.293 219.324 541.586 213.905L540.147 209.34C534.754 192.226 527.834 175.631 519.47 159.756L511.932 145.448L469.667 82.6526L447.847 52.4457L428.737 21.984C427.964 20.7532 426.421 20.2527 425.074 20.7958L422.383 21.8806C416.719 24.1635 411.339 27.0955 406.35 30.6177L405.115 31.4897C383.713 46.6014 363.966 63.9319 346.205 83.1927L345.127 84.3617L318.016 114.32L291.58 143.877C284.25 152.072 276.112 159.507 267.29 166.07L266.22 166.866C262.981 169.275 259.376 171.149 255.542 172.414C249.738 174.331 244.792 167.821 248.194 162.743L254.522 153.294C261.621 144.326 269.409 135.925 277.813 128.167L364.078 48.5377L395.955 25.9699C404.615 19.8386 414.012 14.8207 423.925 11.0342C426.645 9.99519 429.698 10.3235 432.135 11.917L432.41 12.0965C434.65 13.5614 436.598 15.4304 438.155 17.608L460.391 48.7185L488.148 82.6419L510.91 110.217L530.449 135.503C543.154 151.944 553.865 169.833 562.359 188.795L565.969 196.853L568.389 203.661Z" fill="#EA4E46"/>
<path d="M489.055 472.27C484.773 477.296 478.345 479.97 471.762 479.464C466.528 479.061 462.314 474.933 461.734 469.716C461.107 464.07 462.942 458.367 466.781 454.18L470.016 450.651C482.141 437.424 493.052 423.133 502.618 407.952L511.24 394.27L544.49 326.27L559.74 292.27L576.565 260.489C577.245 259.205 576.907 257.618 575.763 256.723L573.478 254.934C568.669 251.171 563.44 247.978 557.895 245.419L556.522 244.785C532.734 233.806 507.852 225.37 482.291 219.619L480.74 219.27L441.24 210.77L402.424 202.654C391.662 200.404 381.154 197.074 371.06 192.715L369.835 192.186C366.129 190.586 362.704 188.4 359.691 185.713C355.13 181.645 358.294 174.107 364.393 174.514L375.74 175.27C387.056 176.934 398.225 179.478 409.146 182.877L521.24 217.77L556.722 234.092C566.363 238.526 575.407 244.156 583.642 250.847C585.902 252.683 587.144 255.491 586.983 258.399L586.965 258.726C586.816 261.399 586.172 264.02 585.064 266.457L569.24 301.27L553.74 342.27L541.24 375.77L529.111 405.334C521.225 424.557 511.088 442.778 498.914 459.615L493.74 466.77L489.055 472.27Z" fill="#EA4E46"/>
<path d="M216.606 542.659C210.112 541.464 204.582 537.234 201.729 531.28C199.461 526.546 200.929 520.832 205.157 517.722C209.733 514.355 215.589 513.094 221.136 514.324L225.809 515.361C243.326 519.248 261.158 521.553 279.088 522.247L295.248 522.872L370.763 517.667L407.833 513.874L443.769 512.555C445.221 512.502 446.426 511.415 446.629 509.977L447.035 507.104C447.89 501.057 448.041 494.932 447.485 488.851L447.347 487.345C444.961 461.254 439.826 435.488 432.026 410.476L431.553 408.958L419.164 370.5L406.785 332.827C403.352 322.382 400.982 311.617 399.71 300.695L399.556 299.37C399.088 295.36 399.269 291.302 400.089 287.349C401.332 281.364 409.442 280.336 412.139 285.821L417.158 296.026C421.375 306.658 424.757 317.602 427.273 328.76L453.102 443.282L456.708 482.172C457.687 492.738 457.335 503.385 455.657 513.863C455.197 516.738 453.386 519.218 450.788 520.532L450.495 520.68C448.106 521.887 445.514 522.64 442.849 522.899L404.789 526.602L361.531 533.678L326.27 539.603L294.602 543.881C274.011 546.663 253.164 546.995 232.495 544.87L223.711 543.967L216.606 542.659Z" fill="#EA4E46"/>
<path d="M18.0208 343.249C15.8088 337.028 16.7069 330.124 20.4371 324.676C23.4026 320.345 29.0852 318.759 33.8931 320.866C39.0966 323.145 43.117 327.586 44.8243 333.005L46.2629 337.57C51.6556 354.684 58.5757 371.279 66.9398 387.154L74.4782 401.462L116.743 464.257L138.563 494.464L157.673 524.926C158.446 526.157 159.989 526.657 161.336 526.114L164.027 525.029C169.691 522.746 175.071 519.815 180.06 516.292L181.295 515.42C202.697 500.309 222.444 482.978 240.205 463.717L241.283 462.548L268.394 432.59L294.83 403.033C302.16 394.838 310.298 387.403 319.12 380.84L320.19 380.044C323.429 377.635 327.034 375.761 330.868 374.496C336.672 372.579 341.618 379.089 338.216 384.167L331.888 393.616C324.789 402.584 317.001 410.985 308.597 418.743L222.332 498.372L190.455 520.94C181.795 527.071 172.398 532.089 162.485 535.876C159.765 536.915 156.712 536.587 154.275 534.993L154 534.813C151.76 533.349 149.812 531.48 148.255 529.302L126.019 498.192L98.2615 464.268L75.4997 436.693L55.9607 411.407C43.2565 394.966 32.5452 377.077 24.0511 358.115L20.4413 350.057L18.0208 343.249Z" fill="#EA4E46"/>
</svg>