<svg width="555" height="555" viewBox="0 0 555 555" fill="none" xmlns="http://www.w3.org/2000/svg">
<rect x="228.92" y="116.58" width="26.5964" height="26.5964" transform="rotate(-7.66213 228.92 116.58)" fill="#EA4E46"/>
<rect x="237.66" y="70.7412" width="28.8128" height="28.8128" transform="rotate(15 237.66 70.7412)" fill="#EA4E46"/>
<rect x="267.009" y="29.3685" width="32.359" height="32.359" transform="rotate(40.2714 267.009 29.3685)" fill="#EA4E46"/>
<rect x="312.838" y="0.918793" width="36.3485" height="36.3485" transform="rotate(63.3251 312.838 0.918793)" fill="#EA4E46"/>
<rect x="154.341" y="162.708" width="26.5964" height="26.5964" transform="rotate(-37.6621 154.341 162.708)" fill="#EA4E46"/>
<rect x="138.99" y="118.64" width="28.8128" height="28.8128" transform="rotate(-15 138.99 118.64)" fill="#EA4E46"/>
<rect x="143.721" y="68.1363" width="32.359" height="32.359" transform="rotate(10.2714 143.721 68.1363)" fill="#EA4E46"/>
<rect x="169.185" y="20.5835" width="36.3485" height="36.3485" transform="rotate(33.3251 169.185 20.5835)" fill="#EA4E46"/>
<rect x="113.64" y="239.065" width="26.5964" height="26.5964" transform="rotate(-67.6621 113.64 239.065)" fill="#EA4E46"/>
<rect x="78.3119" y="208.577" width="28.8128" height="28.8128" transform="rotate(-45 78.3119 208.577)" fill="#EA4E46"/>
<rect x="57.1563" y="162.474" width="32.359" height="32.359" transform="rotate(-19.7286 57.1563 162.474)" fill="#EA4E46"/>
<rect x="55.4326" y="108.56" width="36.3485" height="36.3485" transform="rotate(3.32508 55.4326 108.56)" fill="#EA4E46"/>
<rect x="116.298" y="326.717" width="26.5964" height="26.5964" transform="rotate(-97.6621 116.298 326.717)" fill="#EA4E46"/>
<rect x="70.4588" y="317.977" width="28.8128" height="28.8128" transform="rotate(-75 70.4588 317.977)" fill="#EA4E46"/>
<rect x="29.0862" y="288.629" width="32.359" height="32.359" transform="rotate(-49.7286 29.0862 288.629)" fill="#EA4E46"/>
<rect x="0.636429" y="242.799" width="36.3485" height="36.3485" transform="rotate(-26.6749 0.636429 242.799)" fill="#EA4E46"/>
<rect x="162.986" y="400.678" width="26.5964" height="26.5964" transform="rotate(-127.662 162.986 400.678)" fill="#EA4E46"/>
<rect x="118.918" y="416.028" width="28.8128" height="28.8128" transform="rotate(-105 118.918 416.028)" fill="#EA4E46"/>
<rect x="68.414" y="411.298" width="32.359" height="32.359" transform="rotate(-79.7286 68.414 411.298)" fill="#EA4E46"/>
<rect x="20.8614" y="385.834" width="36.3485" height="36.3485" transform="rotate(-56.6749 20.8614 385.834)" fill="#EA4E46"/>
<rect x="240.224" y="442.202" width="26.5964" height="26.5964" transform="rotate(-157.662 240.224 442.202)" fill="#EA4E46"/>
<rect x="209.735" y="477.53" width="28.8128" height="28.8128" transform="rotate(-135 209.735 477.53)" fill="#EA4E46"/>
<rect x="163.632" y="498.685" width="32.359" height="32.359" transform="rotate(-109.729 163.632 498.685)" fill="#EA4E46"/>
<rect x="109.718" y="500.409" width="36.3485" height="36.3485" transform="rotate(-86.6749 109.718 500.409)" fill="#EA4E46"/>
<rect x="326.701" y="439.271" width="26.5964" height="26.5964" transform="rotate(172.338 326.701 439.271)" fill="#EA4E46"/>
<rect x="317.961" y="485.11" width="28.8128" height="28.8128" transform="rotate(-165 317.961 485.11)" fill="#EA4E46"/>
<rect x="288.613" y="526.483" width="32.359" height="32.359" transform="rotate(-139.729 288.613 526.483)" fill="#EA4E46"/>
<rect x="242.783" y="554.933" width="36.3485" height="36.3485" transform="rotate(-116.675 242.783 554.933)" fill="#EA4E46"/>
<rect x="401.28" y="393.143" width="26.5964" height="26.5964" transform="rotate(142.338 401.28 393.143)" fill="#EA4E46"/>
<rect x="416.631" y="437.211" width="28.8128" height="28.8128" transform="rotate(165 416.631 437.211)" fill="#EA4E46"/>
<rect x="411.901" y="487.715" width="32.359" height="32.359" transform="rotate(-169.729 411.901 487.715)" fill="#EA4E46"/>
<rect x="386.436" y="535.268" width="36.3485" height="36.3485" transform="rotate(-146.675 386.436 535.268)" fill="#EA4E46"/>
<rect x="441.993" y="314.914" width="26.5964" height="26.5964" transform="rotate(112.338 441.993 314.914)" fill="#EA4E46"/>
<rect x="477.321" y="345.402" width="28.8128" height="28.8128" transform="rotate(135 477.321 345.402)" fill="#EA4E46"/>
<rect x="498.477" y="391.505" width="32.359" height="32.359" transform="rotate(160.271 498.477 391.505)" fill="#EA4E46"/>
<rect x="500.2" y="445.419" width="36.3485" height="36.3485" transform="rotate(-176.675 500.2 445.419)" fill="#EA4E46"/>
<rect x="439.335" y="227.262" width="26.5964" height="26.5964" transform="rotate(82.3379 439.335 227.262)" fill="#EA4E46"/>
<rect x="485.174" y="236.002" width="28.8128" height="28.8128" transform="rotate(105 485.174 236.002)" fill="#EA4E46"/>
<rect x="526.547" y="265.351" width="32.359" height="32.359" transform="rotate(130.271 526.547 265.351)" fill="#EA4E46"/>
<rect x="554.997" y="311.18" width="36.3485" height="36.3485" transform="rotate(153.325 554.997 311.18)" fill="#EA4E46"/>
<rect x="393.559" y="153.835" width="26.5964" height="26.5964" transform="rotate(52.3379 393.559 153.835)" fill="#EA4E46"/>
<rect x="437.627" y="138.485" width="28.8128" height="28.8128" transform="rotate(75 437.627 138.485)" fill="#EA4E46"/>
<rect x="488.131" y="143.215" width="32.359" height="32.359" transform="rotate(100.271 488.131 143.215)" fill="#EA4E46"/>
<rect x="535.683" y="168.68" width="36.3485" height="36.3485" transform="rotate(123.325 535.683 168.68)" fill="#EA4E46"/>
<rect x="316.321" y="112.312" width="26.5964" height="26.5964" transform="rotate(22.3379 316.321 112.312)" fill="#EA4E46"/>
<rect x="346.81" y="76.9837" width="28.8128" height="28.8128" transform="rotate(45 346.81 76.9837)" fill="#EA4E46"/>
<rect x="392.913" y="55.828" width="32.359" height="32.359" transform="rotate(70.2714 392.913 55.828)" fill="#EA4E46"/>
<rect x="446.827" y="54.1045" width="36.3485" height="36.3485" transform="rotate(93.3251 446.827 54.1045)" fill="#EA4E46"/>
</svg>
