<svg width="2722" height="555" viewBox="0 0 2722 555" fill="none" xmlns="http://www.w3.org/2000/svg">
<g clip-path="url(#clip0_0_1)">
<path d="M674.685 398.988H632.511V195.388H672.358C676.818 195.388 680.793 196.552 684.283 198.878C687.967 201.205 690.876 204.308 693.009 208.186L742.455 304.75L791.901 208.186C794.034 204.308 796.845 201.205 800.335 198.878C804.019 196.552 808.091 195.388 812.551 195.388H838.438L741.873 384.445L674.685 249.197V398.988ZM852.399 398.988H810.225V282.645L852.399 201.205V398.988ZM992.706 236.69L928.426 398.988H883.052L963.911 195.388H1005.5C1010.16 195.388 1014.42 196.745 1018.3 199.46C1022.37 201.981 1025.28 205.471 1027.03 209.931L1101.19 398.988H1055.82L992.706 236.69ZM1218.62 402.188C1203.88 402.188 1189.92 399.667 1176.74 394.625C1163.55 389.39 1152.01 382.118 1142.13 372.811C1132.24 363.504 1124.38 352.451 1118.57 339.653C1112.94 326.856 1110.13 312.894 1110.13 297.77C1110.13 282.645 1112.94 268.684 1118.57 255.886C1124.38 242.895 1132.24 231.745 1142.13 222.438C1152.01 212.937 1163.55 205.568 1176.74 200.333C1189.92 195.097 1203.88 192.48 1218.62 192.48C1234.52 192.48 1249.94 195.776 1264.87 202.369C1279.8 208.768 1292.5 218.075 1302.97 230.291C1301.22 231.454 1298.9 233.103 1295.99 235.236C1293.27 237.369 1290.36 239.501 1287.26 241.634C1284.35 243.573 1281.45 245.319 1278.54 246.87C1275.63 248.421 1273.11 249.197 1270.98 249.197C1268.84 249.197 1266.22 248.324 1263.12 246.579C1260.21 244.64 1256.63 242.507 1252.36 240.18C1248.09 237.853 1243.15 235.817 1237.53 234.072C1232.09 232.133 1225.79 231.164 1218.62 231.164C1209.31 231.164 1200.68 232.909 1192.73 236.399C1184.78 239.889 1177.9 244.64 1172.08 250.651C1166.27 256.468 1161.71 263.449 1158.41 271.593C1155.12 279.737 1153.47 288.462 1153.47 297.77C1153.47 307.077 1155.12 315.803 1158.41 323.947C1161.9 331.897 1166.65 338.781 1172.67 344.598C1178.68 350.415 1185.66 355.069 1193.61 358.559C1201.75 361.856 1210.48 363.504 1219.78 363.504C1226.77 363.504 1232.97 362.631 1238.4 360.886C1243.83 359.141 1248.58 357.202 1252.65 355.069C1256.72 352.742 1260.21 350.706 1263.12 348.961C1266.22 347.216 1268.84 346.343 1270.98 346.343C1273.11 346.343 1275.53 347.119 1278.25 348.67C1281.16 350.027 1284.06 351.772 1286.97 353.905C1289.88 355.844 1292.69 357.88 1295.41 360.013C1298.12 362.146 1300.35 363.794 1302.1 364.958C1297.05 370.775 1291.34 376.01 1284.94 380.664C1278.54 385.318 1271.65 389.293 1264.29 392.589C1257.11 395.692 1249.64 398.019 1241.89 399.57C1234.13 401.315 1226.38 402.188 1218.62 402.188ZM1503.96 398.988H1466.44C1463.72 398.988 1461.11 398.309 1458.58 396.952C1456.26 395.595 1454.51 393.656 1453.35 391.135L1421.35 328.892C1420.19 326.371 1418.35 324.432 1415.83 323.074C1413.5 321.717 1410.98 321.038 1408.26 321.038H1371.03V398.988H1328.86V286.426H1424.84C1429.11 286.426 1433.09 285.845 1436.77 284.681C1440.65 283.518 1444.04 281.773 1446.95 279.446C1449.86 277.119 1452.18 274.308 1453.93 271.011C1455.67 267.521 1456.55 263.546 1456.55 259.086C1456.55 254.626 1455.67 250.748 1453.93 247.452C1452.18 243.961 1449.86 241.053 1446.95 238.726C1444.04 236.399 1440.65 234.654 1436.77 233.49C1433.09 232.327 1429.11 231.745 1424.84 231.745H1343.4C1339.53 231.745 1336.13 230.291 1333.22 227.382C1330.31 224.474 1328.86 221.081 1328.86 217.202V195.388H1428.62C1438.13 195.388 1447.14 196.842 1455.67 199.751C1464.21 202.466 1471.67 206.538 1478.07 211.967C1484.47 217.202 1489.51 223.795 1493.19 231.745C1496.88 239.501 1498.72 248.421 1498.72 258.504C1498.72 271.496 1495.04 282.936 1487.67 292.825C1480.49 302.714 1471.09 310.18 1459.45 315.221L1503.96 398.988ZM1637 402.188C1622.27 402.188 1608.31 399.57 1595.12 394.334C1582.13 388.905 1570.79 381.537 1561.09 372.229C1551.39 362.728 1543.64 351.578 1537.82 338.781C1532.2 325.983 1529.39 312.119 1529.39 297.188C1529.39 282.257 1532.2 268.393 1537.82 255.596C1543.64 242.798 1551.39 231.745 1561.09 222.438C1570.79 212.937 1582.13 205.568 1595.12 200.333C1608.31 194.903 1622.27 192.189 1637 192.189C1651.74 192.189 1665.61 194.903 1678.6 200.333C1691.78 205.568 1703.22 212.937 1712.92 222.438C1722.81 231.745 1730.56 242.798 1736.19 255.596C1742 268.393 1744.91 282.257 1744.91 297.188C1744.91 312.119 1742 325.983 1736.19 338.781C1730.56 351.578 1722.81 362.728 1712.92 372.229C1703.22 381.537 1691.78 388.905 1678.6 394.334C1665.61 399.57 1651.74 402.188 1637 402.188ZM1637 363.504C1646.5 363.504 1655.13 361.856 1662.89 358.559C1670.84 355.069 1677.63 350.318 1683.25 344.307C1689.07 338.296 1693.53 331.316 1696.63 323.365C1699.93 315.221 1701.57 306.496 1701.57 297.188C1701.57 287.881 1699.93 279.252 1696.63 271.302C1693.53 263.158 1689.07 256.08 1683.25 250.069C1677.63 244.058 1670.84 239.405 1662.89 236.108C1655.13 232.618 1646.5 230.873 1637 230.873C1627.7 230.873 1619.07 232.618 1611.12 236.108C1603.17 239.598 1596.38 244.349 1590.76 250.36C1585.13 256.177 1580.68 263.158 1577.38 271.302C1574.28 279.252 1572.72 287.881 1572.72 297.188C1572.72 306.496 1574.28 315.221 1577.38 323.365C1580.68 331.316 1585.13 338.296 1590.76 344.307C1596.38 350.124 1603.17 354.778 1611.12 358.268C1619.07 361.758 1627.7 363.504 1637 363.504Z" fill="#D9D9D9"/>
<path d="M1884.42 402.188C1869.68 402.188 1855.81 399.57 1842.82 394.334C1829.83 388.905 1818.39 381.537 1808.5 372.229C1798.81 362.728 1791.05 351.578 1785.23 338.781C1779.61 325.983 1776.8 312.119 1776.8 297.188C1776.8 282.257 1779.61 268.393 1785.23 255.596C1791.05 242.798 1798.81 231.745 1808.5 222.438C1818.2 212.937 1829.54 205.568 1842.53 200.333C1855.72 194.903 1869.68 192.189 1884.42 192.189C1899.35 192.189 1913.31 194.903 1926.3 200.333C1939.49 205.568 1950.92 212.84 1960.62 222.147C1970.32 231.454 1977.97 242.507 1983.6 255.305C1989.42 268.102 1992.32 282.064 1992.32 297.188C1992.32 321.232 1984.86 342.659 1969.93 361.468C1968.57 359.722 1966.44 357.299 1963.53 354.196C1960.81 350.9 1958 347.506 1955.09 344.016C1952.19 340.332 1949.67 336.842 1947.53 333.545C1945.4 330.055 1944.33 327.244 1944.33 325.11C1944.33 322.008 1945.11 317.936 1946.66 312.894C1948.21 307.853 1948.99 302.617 1948.99 297.188C1948.99 287.881 1947.34 279.252 1944.04 271.302C1940.94 263.158 1936.48 256.08 1930.66 250.069C1925.04 244.058 1918.25 239.405 1910.3 236.108C1902.35 232.618 1893.72 230.873 1884.42 230.873C1875.11 230.873 1866.48 232.618 1858.53 236.108C1850.78 239.598 1843.99 244.349 1838.17 250.36C1832.55 256.371 1828.09 263.449 1824.79 271.593C1821.69 279.543 1820.14 288.075 1820.14 297.188C1820.14 306.302 1821.59 314.833 1824.5 322.784C1827.6 330.734 1832.25 337.908 1838.46 344.307C1841.95 347.797 1845.34 350.706 1848.64 353.033C1852.13 355.36 1855.72 357.299 1859.4 358.85C1863.09 360.207 1866.97 361.274 1871.04 362.049C1875.11 362.631 1879.57 363.116 1884.42 363.504C1886.55 363.697 1888.49 364.279 1890.23 365.249C1892.17 366.024 1893.82 367.188 1895.18 368.739L1918.16 397.243C1906.71 400.54 1895.47 402.188 1884.42 402.188ZM1949.28 406.55C1944.62 406.55 1940.94 404.708 1938.23 401.024L1882.96 332.091C1887.62 330.54 1892.85 328.601 1898.67 326.274C1904.68 323.753 1910.11 322.493 1914.96 322.493C1917.09 322.493 1919.13 322.977 1921.06 323.947C1923.2 324.917 1924.94 326.177 1926.3 327.728L1981.56 396.661C1980.59 397.049 1978.46 397.825 1975.16 398.988C1972.06 399.958 1968.67 401.024 1964.98 402.188C1961.49 403.351 1958.2 404.321 1955.09 405.096C1952.19 406.066 1950.25 406.55 1949.28 406.55ZM2117.55 402.188C2103.59 402.188 2091.08 400.054 2080.03 395.789C2068.98 391.523 2059.48 385.512 2051.53 377.756C2043.77 369.805 2037.76 360.207 2033.49 348.961C2029.42 337.714 2027.38 325.208 2027.38 311.44V195.97H2069.56V311.44C2069.56 318.809 2070.62 325.692 2072.76 332.091C2074.89 338.49 2077.99 344.016 2082.07 348.67C2086.14 353.324 2091.18 357.008 2097.19 359.722C2103.2 362.243 2110.09 363.504 2117.84 363.504C2125.6 363.504 2132.38 362.243 2138.2 359.722C2144.21 357.008 2149.25 353.324 2153.33 348.67C2157.4 344.016 2160.4 338.49 2162.34 332.091C2164.48 325.692 2165.54 318.809 2165.54 311.44V195.97H2193.17C2197.05 195.97 2200.44 197.424 2203.35 200.333C2206.26 203.241 2207.72 206.635 2207.72 210.513V311.44C2207.72 325.208 2205.58 337.714 2201.32 348.961C2197.25 360.207 2191.24 369.805 2183.28 377.756C2175.53 385.512 2166.12 391.523 2155.07 395.789C2144.02 400.054 2131.51 402.188 2117.55 402.188ZM2290.3 398.988H2248.13V195.388H2275.76C2279.64 195.388 2283.03 196.842 2285.94 199.751C2288.85 202.66 2290.3 206.053 2290.3 209.931V398.988ZM2478.76 231.745H2332.16V195.388H2503.19L2492.14 222.438C2490.97 225.153 2489.13 227.382 2486.61 229.128C2484.28 230.873 2481.66 231.745 2478.76 231.745ZM2439.78 314.93H2332.16V279.446H2463.63L2453.16 305.623C2452 308.338 2450.15 310.568 2447.63 312.313C2445.31 314.058 2442.69 314.93 2439.78 314.93ZM2479.63 398.988H2332.16V362.631H2503.19L2493.3 389.39C2492.33 392.298 2490.58 394.625 2488.06 396.37C2485.54 398.116 2482.73 398.988 2479.63 398.988ZM2643.49 398.988H2601.32V232.618H2532.67V195.388H2721.44L2710.39 223.31C2709.42 226.025 2707.68 228.255 2705.15 230C2702.63 231.745 2699.92 232.618 2697.01 232.618H2643.49V398.988Z" fill="#EA4E46"/>
</g>
<rect x="228.92" y="116.58" width="26.5964" height="26.5964" transform="rotate(-7.66213 228.92 116.58)" fill="#EA4E46"/>
<rect x="237.66" y="70.7412" width="28.8128" height="28.8128" transform="rotate(15 237.66 70.7412)" fill="#EA4E46"/>
<rect x="267.009" y="29.3685" width="32.359" height="32.359" transform="rotate(40.2714 267.009 29.3685)" fill="#EA4E46"/>
<rect x="312.838" y="0.918793" width="36.3485" height="36.3485" transform="rotate(63.3251 312.838 0.918793)" fill="#EA4E46"/>
<rect x="154.341" y="162.708" width="26.5964" height="26.5964" transform="rotate(-37.6621 154.341 162.708)" fill="#EA4E46"/>
<rect x="138.99" y="118.64" width="28.8128" height="28.8128" transform="rotate(-15 138.99 118.64)" fill="#EA4E46"/>
<rect x="143.721" y="68.1363" width="32.359" height="32.359" transform="rotate(10.2714 143.721 68.1363)" fill="#EA4E46"/>
<rect x="169.185" y="20.5835" width="36.3485" height="36.3485" transform="rotate(33.3251 169.185 20.5835)" fill="#EA4E46"/>
<rect x="113.64" y="239.065" width="26.5964" height="26.5964" transform="rotate(-67.6621 113.64 239.065)" fill="#EA4E46"/>
<rect x="78.3119" y="208.577" width="28.8128" height="28.8128" transform="rotate(-45 78.3119 208.577)" fill="#EA4E46"/>
<rect x="57.1563" y="162.474" width="32.359" height="32.359" transform="rotate(-19.7286 57.1563 162.474)" fill="#EA4E46"/>
<rect x="55.4326" y="108.56" width="36.3485" height="36.3485" transform="rotate(3.32508 55.4326 108.56)" fill="#EA4E46"/>
<rect x="116.298" y="326.717" width="26.5964" height="26.5964" transform="rotate(-97.6621 116.298 326.717)" fill="#EA4E46"/>
<rect x="70.4588" y="317.977" width="28.8128" height="28.8128" transform="rotate(-75 70.4588 317.977)" fill="#EA4E46"/>
<rect x="29.0862" y="288.629" width="32.359" height="32.359" transform="rotate(-49.7286 29.0862 288.629)" fill="#EA4E46"/>
<rect x="0.636429" y="242.799" width="36.3485" height="36.3485" transform="rotate(-26.6749 0.636429 242.799)" fill="#EA4E46"/>
<rect x="162.986" y="400.678" width="26.5964" height="26.5964" transform="rotate(-127.662 162.986 400.678)" fill="#EA4E46"/>
<rect x="118.918" y="416.028" width="28.8128" height="28.8128" transform="rotate(-105 118.918 416.028)" fill="#EA4E46"/>
<rect x="68.414" y="411.298" width="32.359" height="32.359" transform="rotate(-79.7286 68.414 411.298)" fill="#EA4E46"/>
<rect x="20.8614" y="385.834" width="36.3485" height="36.3485" transform="rotate(-56.6749 20.8614 385.834)" fill="#EA4E46"/>
<rect x="240.224" y="442.202" width="26.5964" height="26.5964" transform="rotate(-157.662 240.224 442.202)" fill="#EA4E46"/>
<rect x="209.735" y="477.53" width="28.8128" height="28.8128" transform="rotate(-135 209.735 477.53)" fill="#EA4E46"/>
<rect x="163.632" y="498.685" width="32.359" height="32.359" transform="rotate(-109.729 163.632 498.685)" fill="#EA4E46"/>
<rect x="109.718" y="500.409" width="36.3485" height="36.3485" transform="rotate(-86.6749 109.718 500.409)" fill="#EA4E46"/>
<rect x="326.701" y="439.271" width="26.5964" height="26.5964" transform="rotate(172.338 326.701 439.271)" fill="#EA4E46"/>
<rect x="317.961" y="485.11" width="28.8128" height="28.8128" transform="rotate(-165 317.961 485.11)" fill="#EA4E46"/>
<rect x="288.613" y="526.483" width="32.359" height="32.359" transform="rotate(-139.729 288.613 526.483)" fill="#EA4E46"/>
<rect x="242.783" y="554.933" width="36.3485" height="36.3485" transform="rotate(-116.675 242.783 554.933)" fill="#EA4E46"/>
<rect x="401.28" y="393.143" width="26.5964" height="26.5964" transform="rotate(142.338 401.28 393.143)" fill="#EA4E46"/>
<rect x="416.631" y="437.211" width="28.8128" height="28.8128" transform="rotate(165 416.631 437.211)" fill="#EA4E46"/>
<rect x="411.901" y="487.715" width="32.359" height="32.359" transform="rotate(-169.729 411.901 487.715)" fill="#EA4E46"/>
<rect x="386.436" y="535.268" width="36.3485" height="36.3485" transform="rotate(-146.675 386.436 535.268)" fill="#EA4E46"/>
<rect x="441.993" y="314.914" width="26.5964" height="26.5964" transform="rotate(112.338 441.993 314.914)" fill="#EA4E46"/>
<rect x="477.321" y="345.402" width="28.8128" height="28.8128" transform="rotate(135 477.321 345.402)" fill="#EA4E46"/>
<rect x="498.477" y="391.505" width="32.359" height="32.359" transform="rotate(160.271 498.477 391.505)" fill="#EA4E46"/>
<rect x="500.2" y="445.419" width="36.3485" height="36.3485" transform="rotate(-176.675 500.2 445.419)" fill="#EA4E46"/>
<rect x="439.335" y="227.262" width="26.5964" height="26.5964" transform="rotate(82.3379 439.335 227.262)" fill="#EA4E46"/>
<rect x="485.174" y="236.002" width="28.8128" height="28.8128" transform="rotate(105 485.174 236.002)" fill="#EA4E46"/>
<rect x="526.547" y="265.351" width="32.359" height="32.359" transform="rotate(130.271 526.547 265.351)" fill="#EA4E46"/>
<rect x="554.997" y="311.18" width="36.3485" height="36.3485" transform="rotate(153.325 554.997 311.18)" fill="#EA4E46"/>
<rect x="393.559" y="153.835" width="26.5964" height="26.5964" transform="rotate(52.3379 393.559 153.835)" fill="#EA4E46"/>
<rect x="437.627" y="138.485" width="28.8128" height="28.8128" transform="rotate(75 437.627 138.485)" fill="#EA4E46"/>
<rect x="488.131" y="143.215" width="32.359" height="32.359" transform="rotate(100.271 488.131 143.215)" fill="#EA4E46"/>
<rect x="535.683" y="168.68" width="36.3485" height="36.3485" transform="rotate(123.325 535.683 168.68)" fill="#EA4E46"/>
<rect x="316.321" y="112.312" width="26.5964" height="26.5964" transform="rotate(22.3379 316.321 112.312)" fill="#EA4E46"/>
<rect x="346.81" y="76.9837" width="28.8128" height="28.8128" transform="rotate(45 346.81 76.9837)" fill="#EA4E46"/>
<rect x="392.913" y="55.828" width="32.359" height="32.359" transform="rotate(70.2714 392.913 55.828)" fill="#EA4E46"/>
<rect x="446.827" y="54.1045" width="36.3485" height="36.3485" transform="rotate(93.3251 446.827 54.1045)" fill="#EA4E46"/>
<defs>
<clipPath id="clip0_0_1">
<rect width="2091.03" height="216.178" fill="white" transform="translate(630.921 191.745)"/>
</clipPath>
</defs>
</svg>
