<svg width="2471" height="547" viewBox="0 0 2471 547" fill="none" xmlns="http://www.w3.org/2000/svg">
<path d="M338 272.5C338 297.077 318.077 317 293.5 317C268.923 317 249 297.077 249 272.5C249 247.923 268.923 228 293.5 228C318.077 228 338 247.923 338 272.5Z" fill="#EA4E46"/>
<path d="M98.1852 74.0001C102.467 68.9738 108.895 66.2996 115.478 66.806C120.712 67.2086 124.926 71.3371 125.506 76.5541C126.133 82.2003 124.298 87.9026 120.459 92.0904L117.224 95.6189C105.099 108.846 94.1879 123.137 84.6217 138.318L76 152L42.75 220L27.5 254L10.6747 285.781C9.99489 287.065 10.3329 288.652 11.4771 289.547L13.7622 291.336C18.5712 295.099 23.8003 298.292 29.3449 300.852L30.7175 301.485C54.506 312.464 79.3877 320.9 104.949 326.651L106.5 327L146 335.5L184.816 343.616C195.578 345.866 206.086 349.196 216.18 353.555L217.405 354.084C221.111 355.684 224.536 357.87 227.548 360.557C232.11 364.625 228.946 372.163 222.847 371.756L211.5 371C200.184 369.336 189.015 366.792 178.094 363.393L66 328.5L30.5175 312.178C20.8774 307.744 11.8333 302.115 3.59783 295.423C1.33798 293.587 0.0956299 290.779 0.257145 287.871L0.275342 287.544C0.423819 284.871 1.06833 282.25 2.17596 279.813L18 245L33.5 204L46 170.5L58.1289 140.936C66.0152 121.713 76.1516 103.492 88.3261 86.6553L93.5 79.5L98.1852 74.0001Z" fill="#EA4E46"/>
<path d="M370.144 4.03087C376.638 5.22574 382.168 9.45561 385.021 15.4101C387.289 20.1439 385.821 25.858 381.593 28.9685C377.017 32.3349 371.161 33.5962 365.615 32.3656L360.941 31.3287C343.424 27.4418 325.592 25.1374 307.662 24.4434L291.502 23.8179L215.987 29.0226L178.917 32.8157L142.981 34.1351C141.529 34.1884 140.324 35.2745 140.121 36.7132L139.715 39.5862C138.86 45.6327 138.709 51.7579 139.265 57.8392L139.403 59.3447C141.789 85.4357 146.924 111.202 154.724 136.214L155.197 137.732L167.586 176.19L179.965 213.863C183.398 224.308 185.768 235.073 187.04 245.995L187.194 247.32C187.662 251.33 187.481 255.389 186.661 259.341C185.418 265.326 177.308 266.354 174.611 260.869L169.592 250.664C165.375 240.032 161.993 229.088 159.477 217.93L133.648 103.408L130.042 64.518C129.063 53.9522 129.415 43.3052 131.093 32.8274C131.553 29.9523 133.364 27.4722 135.962 26.1584L136.255 26.0104C138.644 24.8027 141.236 24.0501 143.901 23.7909L181.961 20.0885L225.219 13.0119L260.48 7.08718L292.148 2.80901C312.739 0.0273325 333.586 -0.304531 354.255 1.82036L363.039 2.72339L370.144 4.03087Z" fill="#EA4E46"/>
<path d="M568.389 203.661C570.601 209.882 569.703 216.786 565.973 222.234C563.007 226.565 557.325 228.151 552.517 226.044C547.313 223.765 543.293 219.324 541.586 213.905L540.147 209.34C534.754 192.226 527.834 175.631 519.47 159.756L511.932 145.448L469.667 82.6526L447.847 52.4457L428.737 21.984C427.964 20.7532 426.421 20.2527 425.074 20.7958L422.383 21.8806C416.719 24.1635 411.339 27.0955 406.35 30.6177L405.115 31.4897C383.713 46.6014 363.966 63.9319 346.205 83.1927L345.127 84.3617L318.016 114.32L291.58 143.877C284.25 152.072 276.112 159.507 267.29 166.07L266.22 166.866C262.981 169.275 259.376 171.149 255.542 172.414C249.738 174.331 244.792 167.821 248.194 162.743L254.522 153.294C261.621 144.326 269.409 135.925 277.813 128.167L364.078 48.5377L395.955 25.9699C404.615 19.8386 414.012 14.8207 423.925 11.0342C426.645 9.99519 429.698 10.3235 432.135 11.917L432.41 12.0965C434.65 13.5614 436.598 15.4304 438.155 17.608L460.391 48.7185L488.148 82.6419L510.91 110.217L530.449 135.503C543.154 151.944 553.865 169.833 562.359 188.795L565.969 196.853L568.389 203.661Z" fill="#EA4E46"/>
<path d="M489.055 472.27C484.773 477.296 478.345 479.97 471.762 479.464C466.528 479.061 462.314 474.933 461.734 469.716C461.107 464.07 462.942 458.367 466.781 454.18L470.016 450.651C482.141 437.424 493.052 423.133 502.618 407.952L511.24 394.27L544.49 326.27L559.74 292.27L576.565 260.489C577.245 259.205 576.907 257.618 575.763 256.723L573.478 254.934C568.669 251.171 563.44 247.978 557.895 245.419L556.522 244.785C532.734 233.806 507.852 225.37 482.291 219.619L480.74 219.27L441.24 210.77L402.424 202.654C391.662 200.404 381.154 197.074 371.06 192.715L369.835 192.186C366.129 190.586 362.704 188.4 359.691 185.713C355.13 181.645 358.294 174.107 364.393 174.514L375.74 175.27C387.056 176.934 398.225 179.478 409.146 182.877L521.24 217.77L556.722 234.092C566.363 238.526 575.407 244.156 583.642 250.847C585.902 252.683 587.144 255.491 586.983 258.399L586.965 258.726C586.816 261.399 586.172 264.02 585.064 266.457L569.24 301.27L553.74 342.27L541.24 375.77L529.111 405.334C521.225 424.557 511.088 442.778 498.914 459.615L493.74 466.77L489.055 472.27Z" fill="#EA4E46"/>
<path d="M216.606 542.659C210.112 541.464 204.582 537.234 201.729 531.28C199.461 526.546 200.929 520.832 205.157 517.722C209.733 514.355 215.589 513.094 221.136 514.324L225.809 515.361C243.326 519.248 261.158 521.553 279.088 522.247L295.248 522.872L370.763 517.667L407.833 513.874L443.769 512.555C445.221 512.502 446.426 511.415 446.629 509.977L447.035 507.104C447.89 501.057 448.041 494.932 447.485 488.851L447.347 487.345C444.961 461.254 439.826 435.488 432.026 410.476L431.553 408.958L419.164 370.5L406.785 332.827C403.352 322.382 400.982 311.617 399.71 300.695L399.556 299.37C399.088 295.36 399.269 291.302 400.089 287.349C401.332 281.364 409.442 280.336 412.139 285.821L417.158 296.026C421.375 306.658 424.757 317.602 427.273 328.76L453.102 443.282L456.708 482.172C457.687 492.738 457.335 503.385 455.657 513.863C455.197 516.738 453.386 519.218 450.788 520.532L450.495 520.68C448.106 521.887 445.514 522.64 442.849 522.899L404.789 526.602L361.531 533.678L326.27 539.603L294.602 543.881C274.011 546.663 253.164 546.995 232.495 544.87L223.711 543.967L216.606 542.659Z" fill="#EA4E46"/>
<path d="M18.0208 343.249C15.8088 337.028 16.7069 330.124 20.4371 324.676C23.4026 320.345 29.0852 318.759 33.8931 320.866C39.0966 323.145 43.117 327.586 44.8243 333.005L46.2629 337.57C51.6556 354.684 58.5757 371.279 66.9398 387.154L74.4782 401.462L116.743 464.257L138.563 494.464L157.673 524.926C158.446 526.157 159.989 526.657 161.336 526.114L164.027 525.029C169.691 522.746 175.071 519.815 180.06 516.292L181.295 515.42C202.697 500.309 222.444 482.978 240.205 463.717L241.283 462.548L268.394 432.59L294.83 403.033C302.16 394.838 310.298 387.403 319.12 380.84L320.19 380.044C323.429 377.635 327.034 375.761 330.868 374.496C336.672 372.579 341.618 379.089 338.216 384.167L331.888 393.616C324.789 402.584 317.001 410.985 308.597 418.743L222.332 498.372L190.455 520.94C181.795 527.071 172.398 532.089 162.485 535.876C159.765 536.915 156.712 536.587 154.275 534.993L154 534.813C151.76 533.349 149.812 531.48 148.255 529.302L126.019 498.192L98.2615 464.268L75.4997 436.693L55.9607 411.407C43.2565 394.966 32.5452 377.077 24.0511 358.115L20.4413 350.057L18.0208 343.249Z" fill="#EA4E46"/>
<path d="M899.784 204.16V421H864.216V272.488L798.072 421H773.424L706.968 272.488V421H671.4V204.16H709.776L785.904 374.2L861.72 204.16H899.784Z" fill="#EA4E46"/>
<path d="M934.677 334.264C934.677 317 938.213 301.712 945.285 288.4C952.565 275.088 962.341 264.792 974.613 257.512C987.093 250.024 1000.82 246.28 1015.8 246.28C1029.32 246.28 1041.07 248.984 1051.05 254.392C1061.24 259.592 1069.36 266.144 1075.39 274.048V249.088H1111.27V421H1075.39V395.416C1069.36 403.528 1061.14 410.288 1050.74 415.696C1040.34 421.104 1028.48 423.808 1015.17 423.808C1000.4 423.808 986.885 420.064 974.613 412.576C962.341 404.88 952.565 394.272 945.285 380.752C938.213 367.024 934.677 351.528 934.677 334.264ZM1075.39 334.888C1075.39 323.032 1072.89 312.736 1067.9 304C1063.12 295.264 1056.77 288.608 1048.87 284.032C1040.96 279.456 1032.44 277.168 1023.28 277.168C1014.13 277.168 1005.6 279.456 997.701 284.032C989.797 288.4 983.349 294.952 978.357 303.688C973.573 312.216 971.181 322.408 971.181 334.264C971.181 346.12 973.573 356.52 978.357 365.464C983.349 374.408 989.797 381.272 997.701 386.056C1005.81 390.632 1014.34 392.92 1023.28 392.92C1032.44 392.92 1040.96 390.632 1048.87 386.056C1056.77 381.48 1063.12 374.824 1067.9 366.088C1072.89 357.144 1075.39 346.744 1075.39 334.888Z" fill="#EA4E46"/>
<path d="M1146.13 334.888C1146.13 317.208 1149.67 301.712 1156.74 288.4C1164.02 274.88 1174 264.48 1186.69 257.2C1199.38 249.92 1213.94 246.28 1230.37 246.28C1251.17 246.28 1268.33 251.272 1281.85 261.256C1295.58 271.032 1304.83 285.072 1309.62 303.376H1271.24C1268.12 294.848 1263.13 288.192 1256.27 283.408C1249.4 278.624 1240.77 276.232 1230.37 276.232C1215.81 276.232 1204.16 281.432 1195.43 291.832C1186.9 302.024 1182.63 316.376 1182.63 334.888C1182.63 353.4 1186.9 367.856 1195.43 378.256C1204.16 388.656 1215.81 393.856 1230.37 393.856C1250.96 393.856 1264.59 384.808 1271.24 366.712H1309.62C1304.63 384.184 1295.27 398.12 1281.54 408.52C1267.81 418.712 1250.75 423.808 1230.37 423.808C1213.94 423.808 1199.38 420.168 1186.69 412.888C1174 405.4 1164.02 395 1156.74 381.688C1149.67 368.168 1146.13 352.568 1146.13 334.888Z" fill="#EA4E46"/>
<path d="M1380.63 274.048C1385.83 265.312 1392.7 258.552 1401.22 253.768C1409.96 248.776 1420.26 246.28 1432.11 246.28V283.096H1423.06C1409.13 283.096 1398.52 286.632 1391.24 293.704C1384.17 300.776 1380.63 313.048 1380.63 330.52V421H1345.06V249.088H1380.63V274.048Z" fill="#EA4E46"/>
<path d="M1539.37 423.808C1523.15 423.808 1508.49 420.168 1495.38 412.888C1482.28 405.4 1471.98 395 1464.49 381.688C1457.01 368.168 1453.26 352.568 1453.26 334.888C1453.26 317.416 1457.11 301.92 1464.81 288.4C1472.5 274.88 1483.01 264.48 1496.32 257.2C1509.63 249.92 1524.5 246.28 1540.93 246.28C1557.37 246.28 1572.24 249.92 1585.55 257.2C1598.86 264.48 1609.37 274.88 1617.06 288.4C1624.76 301.92 1628.61 317.416 1628.61 334.888C1628.61 352.36 1624.65 367.856 1616.75 381.376C1608.85 394.896 1598.03 405.4 1584.3 412.888C1570.78 420.168 1555.81 423.808 1539.37 423.808ZM1539.37 392.92C1548.53 392.92 1557.05 390.736 1564.96 386.368C1573.07 382 1579.62 375.448 1584.61 366.712C1589.61 357.976 1592.1 347.368 1592.1 334.888C1592.1 322.408 1589.71 311.904 1584.93 303.376C1580.14 294.64 1573.8 288.088 1565.89 283.72C1557.99 279.352 1549.46 277.168 1540.31 277.168C1531.16 277.168 1522.63 279.352 1514.73 283.72C1507.03 288.088 1500.89 294.64 1496.32 303.376C1491.74 311.904 1489.45 322.408 1489.45 334.888C1489.45 353.4 1494.13 367.752 1503.49 377.944C1513.06 387.928 1525.02 392.92 1539.37 392.92Z" fill="#EA4E46"/>
<path d="M1831.62 460.312L1793.56 419.128C1784.2 421.832 1773.9 423.184 1762.67 423.184C1742.5 423.184 1723.88 418.504 1706.82 409.144C1689.98 399.576 1676.56 386.368 1666.58 369.52C1656.8 352.464 1651.91 333.328 1651.91 312.112C1651.91 290.896 1656.8 271.864 1666.58 255.016C1676.56 238.168 1689.98 225.064 1706.82 215.704C1723.88 206.136 1742.5 201.352 1762.67 201.352C1783.06 201.352 1801.67 206.136 1818.52 215.704C1835.58 225.064 1848.99 238.168 1858.77 255.016C1868.54 271.864 1873.43 290.896 1873.43 312.112C1873.43 332.08 1869.06 350.176 1860.33 366.4C1851.8 382.416 1839.94 395.312 1824.76 405.088L1876.86 460.312H1831.62ZM1688.42 312.112C1688.42 328.128 1691.54 342.272 1697.78 354.544C1704.22 366.608 1713.06 375.968 1724.3 382.624C1735.53 389.072 1748.32 392.296 1762.67 392.296C1777.02 392.296 1789.82 389.072 1801.05 382.624C1812.28 375.968 1821.02 366.608 1827.26 354.544C1833.7 342.272 1836.93 328.128 1836.93 312.112C1836.93 296.096 1833.7 282.056 1827.26 269.992C1821.02 257.928 1812.28 248.672 1801.05 242.224C1789.82 235.776 1777.02 232.552 1762.67 232.552C1748.32 232.552 1735.53 235.776 1724.3 242.224C1713.06 248.672 1704.22 257.928 1697.78 269.992C1691.54 282.056 1688.42 296.096 1688.42 312.112Z" fill="#EA4E46"/>
<path d="M2065.03 249.088V421H2029.47V400.72C2023.85 407.792 2016.47 413.408 2007.31 417.568C1998.37 421.52 1988.8 423.496 1978.61 423.496C1965.09 423.496 1952.92 420.688 1942.11 415.072C1931.5 409.456 1923.07 401.136 1916.83 390.112C1910.8 379.088 1907.79 365.776 1907.79 350.176V249.088H1943.04V344.872C1943.04 360.264 1946.89 372.12 1954.59 380.44C1962.28 388.552 1972.79 392.608 1986.1 392.608C1999.41 392.608 2009.91 388.552 2017.61 380.44C2025.51 372.12 2029.47 360.264 2029.47 344.872V249.088H2065.03Z" fill="#EA4E46"/>
<path d="M2130.06 226.312C2123.61 226.312 2118.2 224.128 2113.83 219.76C2109.47 215.392 2107.28 209.984 2107.28 203.536C2107.28 197.088 2109.47 191.68 2113.83 187.312C2118.2 182.944 2123.61 180.76 2130.06 180.76C2136.3 180.76 2141.6 182.944 2145.97 187.312C2150.34 191.68 2152.52 197.088 2152.52 203.536C2152.52 209.984 2150.34 215.392 2145.97 219.76C2141.6 224.128 2136.3 226.312 2130.06 226.312ZM2147.53 249.088V421H2111.96V249.088H2147.53Z" fill="#EA4E46"/>
<path d="M2351.79 330.832C2351.79 337.28 2351.37 343.104 2350.54 348.304H2219.19C2220.23 362.032 2225.32 373.056 2234.48 381.376C2243.63 389.696 2254.86 393.856 2268.17 393.856C2287.31 393.856 2300.83 385.848 2308.73 369.832H2347.11C2341.91 385.64 2332.44 398.64 2318.72 408.832C2305.2 418.816 2288.35 423.808 2268.17 423.808C2251.74 423.808 2236.97 420.168 2223.87 412.888C2210.97 405.4 2200.78 395 2193.29 381.688C2186.01 368.168 2182.37 352.568 2182.37 334.888C2182.37 317.208 2185.91 301.712 2192.98 288.4C2200.26 274.88 2210.35 264.48 2223.24 257.2C2236.35 249.92 2251.32 246.28 2268.17 246.28C2284.4 246.28 2298.85 249.816 2311.54 256.888C2324.23 263.96 2334.11 273.944 2341.18 286.84C2348.25 299.528 2351.79 314.192 2351.79 330.832ZM2314.66 319.6C2314.45 306.496 2309.77 295.992 2300.62 288.088C2291.47 280.184 2280.13 276.232 2266.61 276.232C2254.34 276.232 2243.84 280.184 2235.1 288.088C2226.36 295.784 2221.16 306.288 2219.5 319.6H2314.66Z" fill="#EA4E46"/>
<path d="M2428.29 278.104V373.264C2428.29 379.712 2429.74 384.392 2432.65 387.304C2435.77 390.008 2440.97 391.36 2448.25 391.36H2470.09V421H2442.01C2426 421 2413.73 417.256 2405.2 409.768C2396.67 402.28 2392.41 390.112 2392.41 373.264V278.104H2372.13V249.088H2392.41V206.344H2428.29V249.088H2470.09V278.104H2428.29Z" fill="#EA4E46"/>
</svg>